<?xml version="1.0" encoding="utf-8"?>
<!-- Generator: Adobe Illustrator 25.4.1, SVG Export Plug-In . SVG Version: 6.00 Build 0)  -->
<svg version="1.1" id="Layer_1" xmlns="http://www.w3.org/2000/svg" xmlns:xlink="http://www.w3.org/1999/xlink" x="0px" y="0px"
	 viewBox="0 0 213 163" style="enable-background:new 0 0 213 163;" xml:space="preserve">
<style type="text/css">
	.st0{fill:#A9A9EA;}
	.st1{fill:#F2F2F2;}
	.st2{fill:#DABC99;}
	.st3{fill:#DE9ABB;}
	.st4{fill:#8ACCCA;}
	.st5{fill:#BDDB9C;}
	.st6{fill:none;}
	.st7{fill:#666666;}
	.st8{font-family:'Arial-Black';}
	.st9{font-size:16.5px;}
</style>
<g>
	<g>
		<rect x="27.88" y="22.62" class="st0" width="39.5" height="39.5"/>
		<path class="st1" d="M67.12,22.88v39h-39v-39H67.12 M67.38,22.62h-39.5v39.5h39.5V22.62L67.38,22.62z"/>
	</g>
	<g>
		<rect x="27.88" y="101.12" class="st2" width="39.5" height="39.5"/>
		<path class="st1" d="M67.12,101.38v39h-39v-39H67.12 M67.38,101.12h-39.5v39.5h39.5V101.12L67.38,101.12z"/>
	</g>
	<g>
		<rect x="67.12" y="61.88" class="st3" width="39.5" height="39.5"/>
		<path class="st1" d="M106.38,62.12v39h-39v-39H106.38 M106.62,61.88h-39.5v39.5h39.5V61.88L106.62,61.88z"/>
	</g>
	<g>
		<rect x="27.88" y="61.88" class="st4" width="39.5" height="39.5"/>
		<path class="st1" d="M67.12,62.12v39h-39v-39H67.12 M67.38,61.88h-39.5v39.5h39.5V61.88L67.38,61.88z"/>
	</g>
	<g>
		<rect x="67.12" y="22.62" class="st5" width="39.5" height="39.5"/>
		<path class="st1" d="M106.38,22.88v39h-39v-39H106.38 M106.62,22.62h-39.5v39.5h39.5V22.62L106.62,22.62z"/>
	</g>
</g>
<g>
	<g>
		<rect x="118.25" y="22.75" class="st3" width="39.25" height="39.25"/>
		<g>
			<path class="st1" d="M157.38,22.88v39h-39v-39H157.38 M157.62,22.62h-39.5v39.5h39.5V22.62L157.62,22.62z"/>
		</g>
	</g>
	<g>
		<rect x="118.25" y="101.25" class="st5" width="39.25" height="39.25"/>
		<g>
			<path class="st1" d="M157.38,101.38v39h-39v-39H157.38 M157.62,101.12h-39.5v39.5h39.5V101.12L157.62,101.12z"/>
		</g>
	</g>
	<g>
		<rect x="157.5" y="62" class="st2" width="39.25" height="39.25"/>
		<g>
			<path class="st1" d="M196.62,62.12v39h-39v-39H196.62 M196.88,61.88h-39.5v39.5h39.5V61.88L196.88,61.88z"/>
		</g>
	</g>
	<g>
		<rect x="118.25" y="62" class="st0" width="39.25" height="39.25"/>
		<g>
			<path class="st1" d="M157.38,62.12v39h-39v-39H157.38 M157.62,61.88h-39.5v39.5h39.5V61.88L157.62,61.88z"/>
		</g>
	</g>
	<g>
		<rect x="157.5" y="22.75" class="st4" width="39.25" height="39.25"/>
		<g>
			<path class="st1" d="M196.62,22.88v39h-39v-39H196.62 M196.88,22.62h-39.5v39.5h39.5V22.62L196.88,22.62z"/>
		</g>
	</g>
</g>
<rect x="69.1" y="104.14" class="st6" width="65.77" height="39.99"/>
<text transform="matrix(1 0 0 1 69.1045 115.9536)"><tspan x="0" y="0" class="st7 st8 st9">UZZ</tspan><tspan x="0" y="19.8" class="st7 st8 st9">LE</tspan></text>
<rect x="158.59" y="104.14" class="st6" width="74.54" height="42.24"/>
<text transform="matrix(1 0 0 1 158.5854 115.9536)"><tspan x="0" y="0" class="st7 st8 st9">OET</tspan><tspan x="0" y="19.8" class="st7 st8 st9">RY</tspan></text>
</svg>
